<svg width="22" height="18" viewBox="0 0 22 18" fill="none" xmlns="http://www.w3.org/2000/svg"><path d="M5.976 11.862L3.042 0.954L0.485998 0.954001C0.215999 0.954001 -1.50909e-06 0.738001 -1.53112e-06 0.486001C-1.55315e-06 0.234001 0.215998 7.55977e-07 0.485998 7.32373e-07L3.78 4.44402e-07L6.714 10.908L17.496 10.908L19.782 3.474L6.768 3.474C6.498 3.474 6.3 3.258 6.3 2.988C6.3 2.718 6.516 2.52 6.768 2.52L21.078 2.52L18.216 11.862L5.976 11.862ZM10.422 15.57C10.422 16.902 9.342 18 7.992 18C6.642 18 5.562 16.92 5.562 15.57C5.562 14.22 6.66 13.14 7.992 13.14C9.324 13.14 10.422 14.238 10.422 15.57ZM9.468 15.57C9.468 14.76 8.802 14.112 7.992 14.112C7.182 14.112 6.534 14.76 6.534 15.57C6.534 16.38 7.2 17.046 7.992 17.046C8.784 17.046 9.468 16.38 9.468 15.57ZM18.684 15.57C18.684 16.902 17.604 18 16.272 18C14.94 18 13.842 16.92 13.842 15.57C13.842 14.22 14.922 13.14 16.272 13.14C17.622 13.14 18.684 14.238 18.684 15.57ZM17.73 15.57C17.73 14.76 17.082 14.112 16.272 14.112C15.462 14.112 14.796 14.76 14.796 15.57C14.796 16.38 15.462 17.046 16.272 17.046C17.082 17.046 17.73 16.38 17.73 15.57Z" /></svg>
